<svg xmlns="http://www.w3.org/2000/svg" xmlns:xlink="http://www.w3.org/1999/xlink" width="200" zoomAndPan="magnify" viewBox="0 0 150 37.5" height="50" preserveAspectRatio="xMidYMid meet" version="1.0"><defs><clipPath id="20f02b930a"><path d="M 56.496094 0 L 93.503906 0 L 93.503906 37.007812 L 56.496094 37.007812 Z M 56.496094 0 " clip-rule="nonzero"/></clipPath></defs><g clip-path="url(#20f02b930a)"><path fill="#ffffff" d="M 65.316406 0.0976562 C 63.003906 0.40625 60.9375 1.453125 59.3125 3.136719 C 57.683594 4.828125 56.703125 7.054688 56.535156 9.449219 C 56.480469 10.199219 56.511719 27.695312 56.566406 28.09375 C 56.890625 30.480469 57.871094 32.496094 59.480469 34.089844 C 61.046875 35.644531 62.984375 36.609375 65.175781 36.929688 C 65.660156 37.003906 65.941406 37.007812 75.007812 37.007812 C 83.234375 37.007812 84.394531 37 84.765625 36.945312 C 86.863281 36.660156 88.789062 35.753906 90.296875 34.34375 C 91.851562 32.890625 92.90625 31.015625 93.3125 28.992188 C 93.515625 27.996094 93.507812 28.402344 93.492188 18.296875 C 93.480469 8.035156 93.5 8.890625 93.257812 7.820312 C 92.414062 4.042969 89.296875 1.003906 85.472656 0.226562 C 84.507812 0.03125 84.945312 0.0390625 74.972656 0.0429688 C 67.296875 0.046875 65.644531 0.0507812 65.316406 0.0976562 Z M 84.542969 4.757812 C 85.328125 4.9375 86.101562 5.289062 86.675781 5.722656 C 87.050781 6 87.636719 6.597656 87.882812 6.945312 C 88.292969 7.523438 88.621094 8.28125 88.785156 9.019531 L 88.871094 9.402344 L 88.871094 27.640625 L 88.785156 28.03125 C 88.535156 29.132812 88.035156 30.054688 87.269531 30.8125 C 86.503906 31.574219 85.589844 32.070312 84.496094 32.304688 C 84.191406 32.367188 83.734375 32.371094 75.019531 32.371094 C 66.292969 32.371094 65.847656 32.367188 65.542969 32.304688 C 63.976562 31.964844 62.730469 31.082031 61.910156 29.726562 C 61.457031 28.976562 61.152344 27.914062 61.152344 27.082031 C 61.152344 26.820312 61.160156 26.792969 61.214844 26.816406 C 61.5625 26.949219 62.898438 27.273438 63.621094 27.398438 C 65.34375 27.703125 67.355469 27.738281 69.125 27.507812 C 72.367188 27.078125 75.425781 25.777344 77.964844 23.738281 C 81.03125 21.277344 83.125 17.851562 83.875 14.035156 C 84.089844 12.9375 84.136719 12.394531 84.140625 10.996094 C 84.140625 10.285156 84.125 9.625 84.109375 9.523438 L 84.082031 9.34375 L 65.804688 9.34375 L 65.804688 14.035156 L 72.46875 14.042969 L 79.125 14.054688 L 78.964844 14.542969 C 78.519531 15.871094 77.824219 17.144531 76.929688 18.257812 C 76.507812 18.792969 75.585938 19.710938 75.058594 20.132812 C 73.03125 21.746094 70.679688 22.699219 68.039062 22.972656 C 67.457031 23.035156 65.980469 23.035156 65.429688 22.972656 C 63.953125 22.8125 62.761719 22.507812 61.441406 21.957031 L 61.148438 21.835938 L 61.164062 15.578125 L 61.171875 9.328125 L 61.269531 8.933594 C 61.40625 8.390625 61.539062 8.046875 61.777344 7.578125 C 62.402344 6.371094 63.496094 5.417969 64.796875 4.960938 C 65.105469 4.851562 65.714844 4.710938 65.992188 4.679688 C 66.0625 4.671875 70.183594 4.667969 75.152344 4.667969 L 84.179688 4.675781 Z M 84.542969 4.757812 " fill-opacity="1" fill-rule="nonzero"/></g></svg>
