<svg xmlns="http://www.w3.org/2000/svg" xmlns:xlink="http://www.w3.org/1999/xlink" width="40" zoomAndPan="magnify" viewBox="0 0 30 30.000001" height="40" preserveAspectRatio="xMidYMid meet" version="1.0"><defs><clipPath id="6ad1a7bc6f"><path d="M 0.484375 0 L 29.515625 0 L 29.515625 29.03125 L 0.484375 29.03125 Z M 0.484375 0 " clip-rule="nonzero"/></clipPath></defs><g clip-path="url(#6ad1a7bc6f)"><path fill="#ffffff" d="M 7.402344 0.078125 C 5.589844 0.316406 3.96875 1.140625 2.691406 2.460938 C 1.414062 3.785156 0.644531 5.535156 0.511719 7.414062 C 0.472656 8 0.496094 21.726562 0.539062 22.039062 C 0.792969 23.910156 1.5625 25.492188 2.824219 26.746094 C 4.050781 27.964844 5.570312 28.71875 7.292969 28.972656 C 7.671875 29.03125 7.890625 29.03125 15.007812 29.03125 C 21.460938 29.03125 22.371094 29.027344 22.664062 28.984375 C 24.304688 28.761719 25.816406 28.046875 27 26.945312 C 28.21875 25.800781 29.046875 24.332031 29.367188 22.746094 C 29.527344 21.960938 29.519531 22.285156 29.507812 14.355469 C 29.496094 6.304688 29.515625 6.976562 29.324219 6.136719 C 28.660156 3.171875 26.214844 0.785156 23.214844 0.175781 C 22.460938 0.0234375 22.800781 0.03125 14.976562 0.03125 C 8.957031 0.0351562 7.660156 0.0429688 7.402344 0.078125 Z M 22.484375 3.734375 C 23.101562 3.875 23.707031 4.148438 24.160156 4.492188 C 24.453125 4.707031 24.914062 5.175781 25.105469 5.449219 C 25.425781 5.902344 25.6875 6.496094 25.8125 7.074219 L 25.882812 7.375 L 25.882812 21.6875 L 25.8125 21.992188 C 25.617188 22.855469 25.226562 23.578125 24.625 24.175781 C 24.027344 24.773438 23.308594 25.160156 22.449219 25.34375 C 22.210938 25.394531 21.851562 25.394531 15.015625 25.394531 C 8.167969 25.394531 7.820312 25.394531 7.582031 25.34375 C 6.351562 25.078125 5.375 24.382812 4.730469 23.320312 C 4.375 22.730469 4.136719 21.898438 4.136719 21.246094 C 4.136719 21.039062 4.140625 21.019531 4.183594 21.039062 C 4.460938 21.140625 5.507812 21.398438 6.074219 21.496094 C 7.425781 21.734375 9.003906 21.761719 10.390625 21.578125 C 12.933594 21.246094 15.332031 20.222656 17.328125 18.625 C 19.734375 16.691406 21.371094 14.003906 21.960938 11.011719 C 22.132812 10.148438 22.167969 9.722656 22.171875 8.628906 C 22.171875 8.066406 22.160156 7.550781 22.148438 7.46875 L 22.125 7.332031 L 7.785156 7.332031 L 7.785156 11.011719 L 18.238281 11.027344 L 18.109375 11.410156 C 17.761719 12.453125 17.214844 13.449219 16.515625 14.324219 C 16.179688 14.742188 15.460938 15.464844 15.042969 15.792969 C 13.453125 17.058594 11.613281 17.808594 9.539062 18.023438 C 9.082031 18.070312 7.925781 18.070312 7.492188 18.023438 C 6.335938 17.894531 5.398438 17.65625 4.363281 17.226562 L 4.132812 17.128906 L 4.144531 12.222656 L 4.152344 7.316406 L 4.230469 7.007812 C 4.335938 6.582031 4.4375 6.3125 4.625 5.945312 C 5.117188 5 5.976562 4.25 6.996094 3.894531 C 7.238281 3.808594 7.714844 3.695312 7.933594 3.671875 C 7.988281 3.664062 11.222656 3.664062 15.117188 3.664062 L 22.199219 3.667969 Z M 22.484375 3.734375 " fill-opacity="1" fill-rule="nonzero"/></g></svg>
